<?xml version="1.0" standalone="no"?>
<!DOCTYPE svg PUBLIC "-//W3C//DTD SVG 20010904//EN"
 "http://www.w3.org/TR/2001/REC-SVG-20010904/DTD/svg10.dtd">
<svg version="1.0" xmlns="http://www.w3.org/2000/svg"
 width="180.000000pt" height="180.000000pt" viewBox="0 0 180.000000 180.000000"
 preserveAspectRatio="xMidYMid meet">
<metadata>
Created by potrace 1.14, written by Peter Selinger 2001-2017
</metadata>
<g transform="translate(0.000000,180.000000) scale(0.100000,-0.100000)"
fill="#000000" stroke="none">
<path d="M1240 1330 c-25 -4 -94 -16 -155 -25 -437 -68 -733 -154 -794 -231
-30 -38 -26 -58 20 -98 48 -41 162 -84 333 -127 139 -35 166 -50 166 -90 0
-81 -230 -234 -610 -405 -52 -24 -88 -45 -80 -48 8 -2 90 -18 181 -36 l167
-31 128 77 c126 76 128 76 167 64 46 -14 53 -7 -96 -95 -54 -32 -96 -59 -94
-61 6 -6 256 -54 281 -54 26 0 298 154 451 255 205 136 301 233 312 314 5 39
3 44 -35 80 -52 50 -114 73 -342 128 -259 63 -345 90 -380 123 -17 16 -30 33
-30 40 0 7 17 29 38 49 43 44 146 89 312 138 154 45 166 51 60 33z m-222 -416
c81 -24 83 -26 67 -44 -17 -18 -18 -18 -69 2 -28 11 -73 28 -101 36 -61 20
-59 18 -50 32 9 14 38 9 153 -26z m208 -98 c36 -36 44 -70 19 -80 -8 -3 -37
-8 -64 -12 l-49 -6 -4 48 c-4 41 -1 52 16 66 30 25 44 22 82 -16z m-65 -197
c-52 -49 -54 -50 -100 -43 -25 4 -47 8 -49 9 -2 2 16 21 40 44 41 38 46 40
103 40 l60 0 -54 -50z m-142 -105 c5 -5 8 -3 -66 -52 -56 -38 -65 -41 -107
-36 -25 4 -46 9 -45 13 0 3 28 25 62 48 56 39 66 42 107 37 25 -3 47 -8 49
-10z"/>
</g>
</svg>
