<svg xmlns="http://www.w3.org/2000/svg" viewBox="0 0 815.71 518.65"><defs><style>.cls-1{fill:#f59b0f;}.cls-1,.cls-2{fill-rule:evenodd;}.cls-2{fill:#1a1a18;}</style></defs><g id="Layer_2" data-name="Layer 2"><g id="vertical"><path class="cls-1" d="M256.3,199.87c-17.67-8.14-29-16.82-34.74-26.48-.59,6.15-.92,12.37-.92,18.67a191.17,191.17,0,0,0,31.44,105.26c11.34-5.64,21.92-11.15,31.65-16.47A155.79,155.79,0,0,1,256.3,199.87Z"/><path class="cls-1" d="M424.08,383.76A192.12,192.12,0,0,0,589.82,266.42C569.2,293.91,521.6,329.8,424.08,383.76Z"/><path class="cls-2" d="M388.41,382.26l-77.67-14.75c26.11-15,43.83-25.53,63.89-37.84q-10.78-3.39-21.48-7.09c-22.64,14.15-36,22.33-67.18,40.23l-94.13-17.88s267-111.54,158.48-135.72C240.24,184.67,98.17,133.64,518.17,76c0,0-246.56,53.25-79.31,92.09,138.88,32.25,264.61,45-50.45,214.21Zm16.42-94c-10.43,7.53-22.48,15.71-36.34,24.64a190.37,190.37,0,0,1,26.83,3.88c14.5-9.22,27.17-17.67,38.15-25.45a246,246,0,0,0-28.64-3.07Zm75.61-36.84c-11.26.55-22.53.94-33.81,1.1-5.66,6.48-13.42,13.7-23.41,21.76,9.42,1,18.8,2.27,28.16,3.76,12.95-10.09,22.47-18.86,29.06-26.62ZM471,203.54c-6.21,3.22-12.36,6.55-18.32,10.21,6.65,6.92,8.24,14.95,3.4,25,7.73-.48,15.43-1.21,23.11-2.13,3.95-1.07,7.92-2.1,11.86-3.2,3.42-12.6-4.4-21.8-20.05-29.9ZM393.68,177.3a69.85,69.85,0,0,0-9.28,6.94c23.45,7,42.91,13.31,56,20.6,4.11-3,8.16-6.07,12.19-9.18C436.57,189.71,416.38,183.94,393.68,177.3Z"/><path class="cls-1" d="M273.56,106.78c3.19-1.16,6.52-2.22,10-3.22a156.57,156.57,0,0,1,285.61,82c17.94,9.11,29.86,20.57,33.29,36.51a193.52,193.52,0,0,0,2.34-30C604.76,86,518.77,0,412.7,0,328.78,0,257.48,53.85,231.34,128.86,240.59,120.94,254.48,113.73,273.56,106.78Z"/><path class="cls-2" d="M44.44,518.65q-19.14,0-31.79-11.62C4.22,499.28,0,489.36,0,477.17s4.22-22.1,12.53-29.85,19-11.62,31.79-11.62A45.44,45.44,0,0,1,65,440.25v20.17a37.93,37.93,0,0,0-20.4-5.81A23.46,23.46,0,0,0,27.8,461a21.51,21.51,0,0,0-6.72,16.18c0,6.72,2.28,12.08,6.84,16.3s10.48,6.26,17.43,6.26c8.32,0,15.38-2.16,21-6.38v20.28A47.47,47.47,0,0,1,44.44,518.65Z"/><path class="cls-2" d="M78.05,483.67V437.29H98.56v47.4c0,4.9,1.37,8.55,4,11.17s6.15,3.87,10.48,3.87,8-1.25,10.6-3.87,3.87-6.27,3.87-11.17v-47.4H148v46.38c0,11.05-3.3,19.71-9.91,25.86s-15,9.12-25.07,9.12S94.69,515.57,88,509.53,78.05,494.72,78.05,483.67Z"/><path class="cls-2" d="M203.27,517.05h-41V437.29h38.86c7.52,0,13.56,1.71,18.12,5.24s6.72,8.55,6.72,14.93a17.68,17.68,0,0,1-2.62,9.57A16.65,16.65,0,0,1,216.6,473c4,.91,7.41,3.19,10.49,7a21.88,21.88,0,0,1,4.67,14.24,20.34,20.34,0,0,1-7.86,16.63c-5.13,4.22-12,6.27-20.63,6.27ZM182.76,483v17h16.52a11.5,11.5,0,0,0,7.41-2.28,8.55,8.55,0,0,0-.11-12.42,11.2,11.2,0,0,0-7.3-2.28Zm0-29.05v13.9H198a9.11,9.11,0,0,0,6-1.82,6.11,6.11,0,0,0,2.17-5,6.56,6.56,0,0,0-2.17-5.24,9.11,9.11,0,0,0-6-1.82Z"/><path class="cls-2" d="M266.74,493.35a20.79,20.79,0,0,0,30,0c4-4.21,6-9.68,6-16.18a22.81,22.81,0,0,0-6-16.18,20.79,20.79,0,0,0-30,0c-4,4.22-5.93,9.57-5.93,16.18s1.94,12,5.93,16.18Zm45.12,13.22c-8,8.09-18,12.08-30.08,12.08s-22.11-4-30.08-12.08a42.09,42.09,0,0,1,0-58.8c8-8.08,18-12.07,30.08-12.07s22.1,4,30.08,12.07a42.12,42.12,0,0,1,0,58.8Z"/><polygon class="cls-2" points="357.1 517.05 336.59 517.05 336.59 437.29 357.1 437.29 357.1 467.71 382.96 437.29 407.57 437.29 376.69 473.98 413.27 517.05 388.32 517.05 357.1 481.62 357.1 517.05"/><polygon class="cls-2" points="460.33 517.05 439.82 517.05 439.82 455.3 415.89 455.3 415.89 437.29 484.37 437.29 484.37 455.3 460.33 455.3 460.33 517.05"/><path class="cls-2" d="M515.7,517.05H495.19V437.29h37.49c8.77,0,15.72,2.28,20.85,6.95a22.39,22.39,0,0,1,7.86,17.66,23.58,23.58,0,0,1-4.1,13.68,24,24,0,0,1-11.39,8.77l24.15,32.7H546.47l-22.56-30.42H515.7v30.42Zm0-62.44v15.27h15.84a10.27,10.27,0,0,0,6.72-2.05,6.53,6.53,0,0,0,2.4-5.47,7.31,7.31,0,0,0-2.4-5.7,10.33,10.33,0,0,0-6.72-2.05Z"/><path class="cls-2" d="M593.41,517.05H571.76l33.5-80.21H625l33.5,80.21h-22l-6.72-16.86H600.13l-6.72,16.86ZM615,462.47l-8.32,21.31h16.64Z"/><polygon class="cls-2" points="687.41 517.05 667.25 517.05 667.25 437.29 684.79 437.29 719.66 481.16 719.66 437.29 739.71 437.29 739.71 517.05 722.74 517.05 687.41 472.96 687.41 517.05"/><path class="cls-2" d="M783.13,518.65c-12.31,0-22.56-2.85-30.88-8.55v-21c3.19,3,7.75,5.58,13.67,7.74a45.93,45.93,0,0,0,16.41,3.19c8.09,0,12.19-2.05,12.19-6.26,0-1.71-1-3.19-3.08-4.67a28.67,28.67,0,0,0-5.12-2.05l-7.18-2.17-5.81-1.71-5.24-2a24.9,24.9,0,0,1-5.25-2.51c-4.1-3.07-6.72-5.47-7.74-7.29a24.47,24.47,0,0,1-2.85-11.74c0-7.63,2.85-13.44,8.43-17.66s13.22-6.26,22.9-6.26a56.32,56.32,0,0,1,27,6.61V462a54,54,0,0,0-12.65-5.47,50,50,0,0,0-14.13-2.28c-6.95,0-10.48,1.71-10.48,5.24,0,1.48,1.14,2.74,3.3,3.65l3.65,1.25c.8.34,2.62.8,5.35,1.6s4.56,1.25,5.59,1.59c7.63,2.51,13.56,5.7,18,9.46s6.49,9,6.49,15.95a22.53,22.53,0,0,1-9.11,18.69C800.56,516.37,792.81,518.65,783.13,518.65Z"/></g></g></svg>